<?xml version="1.0" encoding="UTF-8"?>
<!-- Created with Inkscape (http://www.inkscape.org/) -->
<svg width="200" height="200" version="1.1" viewBox="0 0 67.733 67.733" xml:space="preserve"
    xmlns="http://www.w3.org/2000/svg" xmlns:xlink="http://www.w3.org/1999/xlink">
    <g stroke-width=".06294">
        <path
            d="m15.599 46.777s-1.621 18.77-1.3377 19.749c0.07774 0.26871 5.2611-1.4778 10.809-1.6206 3.4233-0.08811 13.154-0.13337 17.703-0.17378 4.6624-0.04142 10.703 0.43575 15.05-5.4241 5.3472-7.2078 3.4825-11.361 1.1519-16.631-2.9337-6.6339-9.1623-7.8808-9.1623-7.8808s7.1326-3.221 6.426-10.889c-0.47461-5.1501-3.8345-8.8701-7.6624-10.668-3.3064-1.5528-8.7174-1.9459-8.7174-1.9459l-4.4171 1.4581s12.886 2.4729 12.886 11.571c0 9.0982-10.726 10.24-10.726 10.24s14.663 1.5861 14.574 13.291c-0.08085 10.599-9.6439 13.566-16.516 14.027-4.2212 0.28267-10.301-0.97841-14.261-4.8246-3.6234-3.0502-4.6679-7.3185-5.8001-10.278z"
            fill="#306998" stop-color="#000000" />
        <path
            d="m45.666 14.065s3.1275 1.8471 5.5955 4.7571c2.2159 2.6127 3.3753 6.6826 3.3753 6.6826s0.22428-4.5102-2.6506-7.7247c-2.3197-2.5938-6.3202-3.715-6.3202-3.715zm1.1046 21.242s5.0854 2.5692 8.041 6.1191c2.5551 3.0689 4.5492 9.3862 4.5492 9.3862s-0.02394-6.6659-3.396-10.764c-3.7513-4.5588-9.1942-4.7415-9.1942-4.7415zm-29.919 15.138s-0.78884 13.768-0.72506 14.588c0.02588 0.33277 5.4814-1.1698 7.7833-1.1684 3.0104 0.0019 7.8616-7.52e-4 7.8616-7.52e-4s-4.9511-2.3176-6.9299-3.8442c-2.2049-1.7012-4.434-3.5717-5.8063-5.3846s-2.1997-4.0781-2.1997-4.0781z"
            fill="#599fd4" stop-color="#000000" />
        <path
            d="m15.764 20.431s-2.6051-4.6438-0.92877-9.8993c1.6763-5.2555 6.0205-8.9883 9.3783-9.3103 1.7553-0.16835-0.70224 7.2942-0.70224 7.2942s3.2982-5.1003 6.003-6.4107c2.4033-1.1643 4.6665-1.4271 6.071-0.65693 1.4045 0.7702-1.8802 5.5499-1.8802 5.5499s4.3178-3.2846 8.3362-2.6277c4.7118 0.7702 2.5598 3.262 2.5598 3.262s-2.045 3.0333-4.1228 3.783c-2.1973 0.79285-3.5661 1.5775-4.6665 1.3365-2.343-0.51317-8.1217-0.15386-11.145 0.8155-6.7332 2.1587-8.8573 6.8412-8.9026 6.8638z"
            fill="#ffd53d" stop-color="#000000" />
        <path
            d="m19.638 24.599s1.74-3.1124 4.372-3.1714c2.6467-0.05931 4.5306 2.5371 4.5306 2.5371s-0.3851-4.5083-4.4626-4.5079c-5.052 5.04e-4 -4.4399 5.1422-4.4399 5.1422z"
            fill="#686868" stop-color="#000000" />
        <path
            d="m13.549 39.769s-1.1926 1.4797-1.1773 2.7711c0.03202 2.699 2.1265 2.9719 2.2585 2.8272 0.10969-0.1202-0.5286-1.8741-0.2563-2.9633 0.27231-1.0892 1.4897-2.715 1.4897-2.715s-0.33637 2.4187-0.35239 3.1475c0.02394 1.1693 0.50457 4.8695 4.1406 4.5972 3.6361-0.27231 3.9805-3.2757 4.0285-4.8614 0.04806-1.5858-0.87308-5.017-1.4603-6.8761-0.51239-1.6224-0.21781-2.244-0.21781-2.244s-2.9334 2.897-4.1768 3.7421c-1.128 0.76663-4.2765 2.5749-4.2765 2.5749z"
            fill="#ffd53d" stop-color="#000000" />
        <path
            d="m15.266 21.552c0.06762 0.14463-0.93987 4.0946 2.8995 5.2781 4.6321 1.4279 7.0147-0.91756 7.4075-0.63428 0.31778 0.2292-1.05 5.2777-4.1228 8.3136-2.561 2.5302-4.5381 3.9315-6.7732 5.0516-1.5513 0.77737-3.611 1.048-4.2361 0.72489-0.30645-0.15842 2.7469-2.0554 4.3267-5.5726 0.9505-2.1162-0.18262-3.8244-3.6471-5.5952-2.2015-1.1253-4.8244-0.72826-5.9708-0.57189-0.30262 0.04128 3.51-3.1722 4.8171-4.0242 1.2682-0.82665 5.1675-3.2516 5.2992-2.9699z"
            fill="#686868" stop-color="#000000" />
        <path
            d="m15.215 21.503c-0.50054-0.0055-4.0926 2.1411-5.2914 2.9226-1.3071 0.85203-5.3393 4.3618-5.0518 4.2587 1.3701-0.49111 6.6046-0.38019 8.1745-0.18491 0.73702 0.09168 4.1361 1.1486 5.8934 1.2769 2.7697 0.2022 4.3279-1.5214 4.5217-1.4598 0.1509 0.04793-0.46182 0.99726-0.79209 1.6017-0.37459 0.68552-1.0941 1.8652-1.3934 2.444-0.47194 0.91234-2.9492 3.0175-3.5589 3.4809-0.70895 0.53885-3.2087 1.5363-3.7169 1.7652-0.50824 0.22892 0.87702-1.3754 1.2244-2.9112 0.26611-1.1767 0.01328-1.7688 0.01328-1.7688s-0.29275 1.1503-0.67454 1.8235c-1.902 3.3538-4.4249 5.35-4.1185 5.5084 0.62503 0.3231 2.6848 0.05263 4.236-0.72474 2.2351-1.1201 4.2122-2.5216 6.7733-5.0518 3.0729-3.0359 4.4405-8.0842 4.1227-8.3134-0.39274-0.28328-2.7756 2.0619-7.4076 0.63406-3.8394-1.1835-2.8316-5.1335-2.8993-5.2781-0.0072-0.01541-0.02576-0.02267-0.05471-0.02299zm-1.9546 2.8164c0.52859 0 0.95304 0.68069 0.95304 0.68069l-1.8662 0.06412c0-0.03203 0.38461-0.74481 0.91321-0.74481z"
            fill="#599fd4" stop-color="#000000" />
        <path
            d="m19.924 31.584c0.08897 0.02675-0.56484 1.7759-1.4817 2.8272-1.3003 1.491-2.783 1.6626-2.9313 1.5377-0.07832-0.06599-7e-3 -1.2394 0.6247-2.1784 0.55522-0.82536 1.4915-1.0795 1.5778-1.0011 0.07211 0.06552-0.01598 0.4405-0.01598 0.4405s0.8079-0.3798 1.1853-0.68877c0.43822-0.24238 0.87443-0.89644 1.0411-0.93705z"
            fill="#ffd53d" stop-color="#000000" />
        <path
            d="m3.5484 40.439c0.035218 0.24433 1.3549 0.33768 2.8146-0.8778 1.4894-1.2402 1.8292-2.6107 2.9052-3.5735 1.076-0.96274 2.8582-1.4727 4.0039-1.6593 1.2516-0.20387 0.69658-0.30015 1.563-0.7532 0.84622-0.44247 0.54991-0.1227 1.4045-0.63994 0.86081-0.52101 1.4189-1.4937 1.3586-1.5691-0.079-0.0988-0.56574-0.07322-1.3473 0.22127-0.78152 0.29449-0.90612 0.47004-1.3932 0.60596-0.48702 0.13592-2.5258 0.49836-3.8623 0.61729-1.3192 0.11738-2.8046 0.92065-4.5306 2.707-0.97348 1.0076-1.5187 1.3258-2.5777 1.6933-0.98913 0.34328-2.2473-0.38355-2.2247-0.22087 0.060472 0.43363 1.0826 1.2552 2.1302 1.2441 0.95737-0.01013 1.7792-0.53028 1.7792-0.53028s0.08884 0.7246-0.32457 1.5231c-0.53943 1.0419-1.7095 1.1385-1.699 1.2119z"
            fill="#ffd53d" stop-color="#000000" />
        <path
            d="m17.473 31.455c-0.131-0.10627-1.0412 0.02803-1.794 0.39244-0.71894 0.348-1.2574 1.1373-2.1785 1.2494-0.92103 0.11213-3.2721 0.34654-4.0525 0.61669-0.83294 0.28832-1.6458 1.2254-2.0263 1.786-0.18791 0.27692-0.77984 1.51-0.70479 1.6819 0.10904 0.24977 2.1119-2.07 2.667-2.2986 0.95308-0.39244 2.8312-0.83294 3.5079-0.8009 0.54687 0.02589 1.3695-0.40846 1.8821-0.68877 0.51258-0.28031 1.0412-0.0921 1.4656-0.46852 0.42447-0.37642 1.3757-1.3542 1.2334-1.4696z"
            fill="#ffe875" stop-color="#000000" />
    </g>
</svg>