<?xml version="1.0" encoding="UTF-8" standalone="no"?>

<svg
   width="256"
   height="256"
   xmlns:xlink="http://www.w3.org/1999/xlink"
   xmlns="http://www.w3.org/2000/svg"
   xmlns:svg="http://www.w3.org/2000/svg"><defs
     id="defs2"><linearGradient
       id="linearGradient2795"><stop
         style="stop-color:#b8b8b8;stop-opacity:0.49803922;"
         offset="0"
         id="stop2797" /><stop
         style="stop-color:#7f7f7f;stop-opacity:0;"
         offset="1"
         id="stop2799" /></linearGradient><linearGradient
       id="linearGradient2787"><stop
         style="stop-color:#7f7f7f;stop-opacity:0.5;"
         offset="0"
         id="stop2789" /><stop
         style="stop-color:#7f7f7f;stop-opacity:0;"
         offset="1"
         id="stop2791" /></linearGradient><linearGradient
       id="linearGradient3676"><stop
         style="stop-color:#b2b2b2;stop-opacity:0.5;"
         offset="0"
         id="stop3678" /><stop
         style="stop-color:#b3b3b3;stop-opacity:0;"
         offset="1"
         id="stop3680" /></linearGradient><linearGradient
       id="linearGradient3236"><stop
         style="stop-color:#f4f4f4;stop-opacity:1"
         offset="0"
         id="stop3244" /><stop
         style="stop-color:white;stop-opacity:1"
         offset="1"
         id="stop3240" /></linearGradient><linearGradient
       id="linearGradient4671"><stop
         style="stop-color:#ffd43b;stop-opacity:1;"
         offset="0"
         id="stop4673" /><stop
         style="stop-color:#ffe873;stop-opacity:1"
         offset="1"
         id="stop4675" /></linearGradient><linearGradient
       id="linearGradient4689"><stop
         style="stop-color:#5a9fd4;stop-opacity:1;"
         offset="0"
         id="stop4691" /><stop
         style="stop-color:#306998;stop-opacity:1;"
         offset="1"
         id="stop4693" /></linearGradient><linearGradient
       x1="224.23996"
       y1="144.75717"
       x2="-65.308502"
       y2="144.75717"
       id="linearGradient2987"
       xlink:href="#linearGradient4671"
       gradientUnits="userSpaceOnUse"
       gradientTransform="translate(100.2702,99.61116)" /><linearGradient
       x1="172.94208"
       y1="77.475983"
       x2="26.670298"
       y2="76.313133"
       id="linearGradient2990"
       xlink:href="#linearGradient4689"
       gradientUnits="userSpaceOnUse"
       gradientTransform="translate(100.2702,99.61116)" /><linearGradient
       xlink:href="#linearGradient4671"
       id="linearGradient2255"
       gradientUnits="userSpaceOnUse"
       gradientTransform="matrix(0.562541,0,0,0.567972,-11.5974,-7.60954)"
       x1="224.23996"
       y1="144.75717"
       x2="-65.308502"
       y2="144.75717" /><linearGradient
       xlink:href="#linearGradient4689"
       id="linearGradient2258"
       gradientUnits="userSpaceOnUse"
       gradientTransform="matrix(0.562541,0,0,0.567972,-11.5974,-7.60954)"
       x1="172.94208"
       y1="76.176224"
       x2="26.670298"
       y2="76.313133" /><radialGradient
       xlink:href="#linearGradient2795"
       id="radialGradient2801"
       cx="61.518883"
       cy="132.28575"
       fx="61.518883"
       fy="132.28575"
       r="29.036913"
       gradientTransform="matrix(1,0,0,0.177966,0,108.7434)"
       gradientUnits="userSpaceOnUse" /></defs><g
     id="layer1" /><g
     id="layer2"
     style="display:inline"><g
       id="g36898"
       transform="matrix(0.48303597,0,0,0.48303597,143.08045,9.6122112)"><g
         id="g36876"
         transform="matrix(1.2973186,0,0,1.2973186,89.181702,-3.443033)"><path
           style="display:inline;fill:#306998;fill-opacity:1;stroke-width:0.100439;stop-color:#000000"
           d="m -272.17552,61.960317 c 0,0 -2.58673,29.953282 -2.13472,31.515659 0.12405,0.428798 8.39561,-2.358199 17.24887,-2.586065 5.46279,-0.140603 20.99022,-0.212829 28.25002,-0.277321 7.44013,-0.06609 17.08007,0.695369 24.01725,-8.655718 8.53292,-11.502093 5.55728,-18.130312 1.83814,-26.540219 -4.6816,-10.586274 -14.621,-12.576103 -14.621,-12.576103 0,0 11.38207,-5.140074 10.25443,-17.376469 -0.75737,-8.218413 -6.11905,-14.154767 -12.22748,-17.0234611 -5.27624,-2.4778744 -13.91104,-3.1052866 -13.91104,-3.1052866 l -7.04868,2.3268205 c 0,0 20.56253,3.9462582 20.56253,18.4650122 0,14.518755 -17.11615,16.340553 -17.11615,16.340553 0,0 23.39951,2.531127 23.25704,21.20896 -0.12902,16.914448 -15.38953,21.649132 -26.3554,22.383452 -6.73617,0.451081 -16.43865,-1.561335 -22.7581,-7.699059 -5.78209,-4.867506 -7.44889,-11.678748 -9.25571,-16.400755 z"
           id="path1368" /><path
           id="path1379"
           style="display:inline;fill:#599fd4;fill-opacity:1;stroke-width:0.100439;stop-color:#000000"
           d="m -224.19613,9.7601278 c 0,0 4.99082,2.9475942 8.92917,7.5912682 3.53603,4.16932 5.38623,10.663948 5.38623,10.663948 0,0 0.3579,-7.197311 -4.22972,-12.326896 -3.7018,-4.13913 -10.08568,-5.9283202 -10.08568,-5.9283202 z m 1.76268,33.8981892 c 0,0 8.11513,4.099821 12.83177,9.764779 4.07745,4.897232 7.25951,14.978414 7.25951,14.978414 0,0 -0.0382,-10.637352 -5.41931,-17.17673 -5.98626,-7.27489 -14.67197,-7.566463 -14.67197,-7.566463 z m -47.74386,24.157182 c 0,0 -1.25881,21.970887 -1.15703,23.279716 0.0413,0.531027 8.74709,-1.86679 12.42047,-1.864524 4.80391,0.003 12.54543,-0.0012 12.54543,-0.0012 0,0 -7.90089,-3.698315 -11.05858,-6.134539 -3.51859,-2.714666 -7.07566,-5.699718 -9.26565,-8.592708 -2.18999,-2.89299 -3.5102,-6.507806 -3.5102,-6.507806 z" /><path
           style="display:inline;fill:#ffd53d;fill-opacity:1;stroke-width:0.100439;stop-color:#000000"
           d="m -271.91261,19.918087 c 0,0 -4.15713,-7.410541 -1.48211,-15.7971035 2.67504,-8.3865629 9.60737,-14.3433325 14.96568,-14.8572295 2.80113,-0.268647 -1.12062,11.63997042 -1.12062,11.63997042 0,0 5.26314,-8.13904292 9.57948,-10.23016062 3.83508,-1.8579638 7.44669,-2.2773858 9.68793,-1.0483198 2.24123,1.2290649 -3.00037,8.856499 -3.00037,8.856499 0,0 6.89026,-5.2414906 13.30283,-4.1932814 7.51898,1.2290651 4.08483,5.20545276 4.08483,5.20545276 0,0 -3.26332,4.84046084 -6.57911,6.03687924 -3.50645,1.265214 -5.69066,2.5174013 -7.44669,2.1327895 -3.73888,-0.8189014 -12.96044,-0.2455238 -17.7853,1.3013632 -10.7448,3.4448677 -14.13426,10.9169917 -14.20655,10.9531407 z"
           id="path669" /><path
           style="display:inline;fill:#686868;fill-opacity:1;stroke-width:0.100439;stop-color:#000000"
           d="m -265.73112,26.569498 c 0,0 2.77664,-4.966739 6.97674,-5.060857 4.22353,-0.09464 7.2298,4.048686 7.2298,4.048686 0,0 -0.61454,-7.194297 -7.12135,-7.193647 -8.06195,8.05e-4 -7.08519,8.205818 -7.08519,8.205818 z"
           id="path1281" /><path
           style="display:inline;fill:#ffd53d;fill-opacity:1;stroke-width:0.100439;stop-color:#000000"
           d="m -275.44736,50.777297 c 0,0 -1.90319,2.361345 -1.87873,4.422087 0.0511,4.307059 3.39342,4.742442 3.60413,4.511549 0.17504,-0.191811 -0.84353,-2.990659 -0.409,-4.728821 0.43455,-1.738159 2.37719,-4.33262 2.37719,-4.33262 0,0 -0.53678,3.859739 -0.56234,5.022774 0.0382,1.865966 0.80519,7.770599 6.60756,7.336061 5.8024,-0.434541 6.35196,-5.227263 6.42865,-7.75782 0.0767,-2.53056 -1.39325,-8.005988 -2.33025,-10.972772 -0.81767,-2.588974 -0.34758,-3.58094 -0.34758,-3.58094 0,0 -4.68113,4.623059 -6.66531,5.971535 -1.80011,1.223379 -6.82432,4.108967 -6.82432,4.108967 z"
           id="path1365" /><path
           style="display:inline;fill:#686868;fill-opacity:1;stroke-width:0.100439;stop-color:#000000"
           d="m -272.70788,21.70746 c 0.1079,0.230803 -1.49983,6.534055 4.62705,8.422712 7.39179,2.278575 11.194,-1.464219 11.82073,-1.012172 0.5071,0.365761 -1.6755,8.422042 -6.57912,13.266675 -4.08682,4.037653 -7.24175,6.273852 -10.80854,8.061221 -2.4755,1.240508 -5.76244,1.67237 -6.75985,1.156769 -0.48903,-0.252799 4.3835,-3.280025 6.90445,-8.892648 1.51679,-3.376971 -0.29143,-6.102903 -5.81999,-8.928798 -3.51316,-1.795732 -7.69872,-1.162153 -9.52811,-0.912611 -0.48291,0.06587 5.60115,-5.06217 7.68705,-6.421823 2.02377,-1.319152 8.24615,-5.188916 8.45633,-4.739325 z"
           id="path1284" /><path
           id="path1284-1"
           style="display:inline;fill:#599fd4;fill-opacity:1;stroke-width:0.100439;stop-color:#000000"
           d="m -272.788,21.629171 c -0.79876,-0.0088 -6.53084,3.416788 -8.44393,4.663798 -2.0859,1.35965 -8.52032,6.960415 -8.06152,6.795967 2.18646,-0.783701 10.53945,-0.606701 13.04468,-0.295072 1.17613,0.146302 6.60039,1.832876 9.40459,2.037602 4.41979,0.322674 6.90645,-2.427774 7.21558,-2.329574 0.24081,0.07649 -0.73697,1.591411 -1.264,2.555916 -0.59776,1.093946 -1.74588,2.976418 -2.22364,3.900021 -0.75311,1.455901 -4.70631,4.815203 -5.67924,5.554699 -1.13133,0.859889 -5.12037,2.451574 -5.93142,2.816883 -0.81105,0.365308 1.39954,-2.194771 1.95389,-4.645711 0.42465,-1.877754 0.0212,-2.822567 0.0212,-2.822567 0,0 -0.46716,1.835608 -1.07642,2.9099 -3.03521,5.352014 -7.06124,8.537362 -6.57221,8.790161 0.99741,0.515601 4.2843,0.08399 6.7598,-1.156519 3.56678,-1.787368 6.72183,-4.023874 10.80864,-8.061523 4.90362,-4.844628 7.08603,-12.900613 6.57893,-13.266374 -0.62673,-0.452046 -4.4292,3.290398 -11.82099,1.011825 -6.12687,-1.888655 -4.51869,-8.191938 -4.62659,-8.422742 -0.0115,-0.02459 -0.0411,-0.03618 -0.0873,-0.03669 z m -3.11919,4.494299 c 0.84351,0 1.52084,1.086239 1.52084,1.086239 l -2.97812,0.102319 c 0,-0.05112 0.61376,-1.188558 1.45728,-1.188558 z" /><path
           style="display:inline;fill:#ffd53d;fill-opacity:1;stroke-width:0.100439;stop-color:#000000"
           d="m -265.274,37.71553 c 0.14198,0.04268 -0.90137,2.834023 -2.36442,4.511551 -2.07506,2.379262 -4.44108,2.653228 -4.67768,2.453873 -0.12499,-0.105315 -0.0112,-1.977784 0.99689,-3.476321 0.88601,-1.317097 2.38017,-1.722595 2.51776,-1.597574 0.11507,0.104556 -0.0255,0.702934 -0.0255,0.702934 0,0 1.28923,-0.606077 1.89151,-1.099132 0.6993,-0.386792 1.3954,-1.430522 1.66144,-1.495331 z"
           id="path1344" /><path
           style="display:inline;fill:#ffd53d;fill-opacity:1;stroke-width:0.100439;stop-color:#000000"
           d="m -291.40593,51.84667 c 0.0562,0.3899 2.16216,0.538872 4.49151,-1.400773 2.37679,-1.979155 2.91901,-4.166168 4.6361,-5.7025 1.71707,-1.536332 4.56099,-2.35009 6.38932,-2.647914 1.99725,-0.325339 1.1116,-0.478973 2.49429,-1.201951 1.35038,-0.706086 0.87754,-0.195807 2.24124,-1.021211 1.37366,-0.831426 2.26424,-2.383616 2.16801,-2.503959 -0.12606,-0.157659 -0.90279,-0.116842 -2.14993,0.353096 -1.24714,0.469937 -1.44597,0.75009 -2.22319,0.966985 -0.77718,0.216895 -4.03059,0.795278 -6.16339,0.98506 -2.10508,0.187316 -4.47555,1.469165 -7.22978,4.319802 -1.55346,1.607831 -2.42355,2.115624 -4.11352,2.702137 -1.57843,0.547804 -3.58628,-0.612056 -3.55006,-0.352453 0.0965,0.691979 1.72755,2.003055 3.39938,1.985358 1.52776,-0.01617 2.83914,-0.846211 2.83914,-0.846211 0,0 0.14177,1.156313 -0.51795,2.430565 -0.86082,1.662642 -2.72807,1.816791 -2.71117,1.933969 z"
           id="path1360" /><path
           style="display:inline;fill:#ffe875;fill-opacity:1;stroke-width:0.100439;stop-color:#000000"
           d="m -269.18486,37.511042 c -0.20905,-0.169584 -1.66147,0.04473 -2.86284,0.626248 -1.14727,0.555328 -2.00658,1.814846 -3.47634,1.993773 -1.46976,0.17893 -5.22153,0.552998 -6.46697,0.984107 -1.32919,0.460101 -2.62641,1.955429 -3.2335,2.85007 -0.29987,0.441903 -1.24446,2.409564 -1.12469,2.683926 0.174,0.398586 3.37015,-3.303299 4.25593,-3.66803 1.52091,-0.62625 4.51794,-1.329183 5.59792,-1.278059 0.87269,0.04131 2.18549,-0.651812 3.00342,-1.099132 0.81796,-0.447321 1.6615,-0.146974 2.33886,-0.747663 0.67736,-0.600689 2.19531,-2.161013 1.96821,-2.34524 z"
           id="path1362" /></g></g></g><g
     id="layer3" /></svg>
