<?xml version="1.0" encoding="UTF-8" standalone="no"?>
<!-- Created with Inkscape (http://www.inkscape.org/) -->

<svg
   width="512"
   height="256"
   viewBox="0 0 135.46666 67.733333"
   version="1.1"
   id="svg5"
   xml:space="preserve"
   xmlns:xlink="http://www.w3.org/1999/xlink"
   xmlns="http://www.w3.org/2000/svg"
   xmlns:svg="http://www.w3.org/2000/svg"><defs
     id="defs2"><linearGradient
       id="linearGradient36858"><stop
         style="stop-color:#ffe875;stop-opacity:1;"
         offset="0"
         id="stop36854" /><stop
         style="stop-color:#ffd53d;stop-opacity:0;"
         offset="1"
         id="stop36856" /></linearGradient><linearGradient
       xlink:href="#linearGradient36858"
       id="linearGradient36860"
       x1="-389.11023"
       y1="-51.72884"
       x2="-389.61368"
       y2="24.111717"
       gradientUnits="userSpaceOnUse" /><linearGradient
       id="linearGradient2795"><stop
         style="stop-color:#b8b8b8;stop-opacity:0.49803922;"
         offset="0"
         id="stop2797" /><stop
         style="stop-color:#7f7f7f;stop-opacity:0;"
         offset="1"
         id="stop2799" /></linearGradient><linearGradient
       id="linearGradient2787"><stop
         style="stop-color:#7f7f7f;stop-opacity:0.5;"
         offset="0"
         id="stop2789" /><stop
         style="stop-color:#7f7f7f;stop-opacity:0;"
         offset="1"
         id="stop2791" /></linearGradient><linearGradient
       id="linearGradient3676"><stop
         style="stop-color:#b2b2b2;stop-opacity:0.5;"
         offset="0"
         id="stop3678" /><stop
         style="stop-color:#b3b3b3;stop-opacity:0;"
         offset="1"
         id="stop3680" /></linearGradient><linearGradient
       id="linearGradient3236"><stop
         style="stop-color:#f4f4f4;stop-opacity:1"
         offset="0"
         id="stop3244" /><stop
         style="stop-color:white;stop-opacity:1"
         offset="1"
         id="stop3240" /></linearGradient><linearGradient
       id="linearGradient4671"><stop
         style="stop-color:#ffd43b;stop-opacity:1;"
         offset="0"
         id="stop4673" /><stop
         style="stop-color:#ffe873;stop-opacity:1"
         offset="1"
         id="stop4675" /></linearGradient><linearGradient
       id="linearGradient4689"><stop
         style="stop-color:#5a9fd4;stop-opacity:1;"
         offset="0"
         id="stop4691" /><stop
         style="stop-color:#306998;stop-opacity:1;"
         offset="1"
         id="stop4693" /></linearGradient><linearGradient
       x1="224.23996"
       y1="144.75717"
       x2="-65.308502"
       y2="144.75717"
       id="linearGradient2987"
       xlink:href="#linearGradient4671"
       gradientUnits="userSpaceOnUse"
       gradientTransform="translate(100.2702,99.61116)" /><linearGradient
       x1="172.94208"
       y1="77.475983"
       x2="26.670298"
       y2="76.313133"
       id="linearGradient2990"
       xlink:href="#linearGradient4689"
       gradientUnits="userSpaceOnUse"
       gradientTransform="translate(100.2702,99.61116)" /><linearGradient
       xlink:href="#linearGradient4671"
       id="linearGradient2255"
       gradientUnits="userSpaceOnUse"
       gradientTransform="matrix(0.562541,0,0,0.567972,-11.5974,-7.60954)"
       x1="224.23996"
       y1="144.75717"
       x2="-65.308502"
       y2="144.75717" /><linearGradient
       xlink:href="#linearGradient4689"
       id="linearGradient2258"
       gradientUnits="userSpaceOnUse"
       gradientTransform="matrix(0.562541,0,0,0.567972,-11.5974,-7.60954)"
       x1="172.94208"
       y1="76.176224"
       x2="26.670298"
       y2="76.313133" /><radialGradient
       xlink:href="#linearGradient2795"
       id="radialGradient2801"
       cx="61.518883"
       cy="132.28575"
       fx="61.518883"
       fy="132.28575"
       r="29.036913"
       gradientTransform="matrix(1,0,0,0.177966,0,108.7434)"
       gradientUnits="userSpaceOnUse" /><linearGradient
       xlink:href="#linearGradient4671"
       id="linearGradient1475"
       gradientUnits="userSpaceOnUse"
       gradientTransform="matrix(0.562541,0,0,0.567972,-14.99112,-11.702371)"
       x1="150.96111"
       y1="192.35176"
       x2="112.03144"
       y2="137.27299" /><linearGradient
       xlink:href="#linearGradient4689"
       id="linearGradient1478"
       gradientUnits="userSpaceOnUse"
       gradientTransform="matrix(0.562541,0,0,0.567972,-14.99112,-11.702371)"
       x1="26.648937"
       y1="20.603781"
       x2="135.66525"
       y2="114.39767" /></defs><g
     id="layer1" /><g
     id="layer2"
     style="display:inline"><g
       id="g36898"
       transform="matrix(0.48303597,0,0,0.48303597,143.08045,9.6122112)"><g
         id="g36881"><path
           style="display:inline;fill:#2f6998;fill-opacity:1;stroke-width:0.100439;stop-color:#000000"
           d="m -274.14326,91.709956 c 0,0 10.5743,-2.745505 21.09365,-2.709358 10.51935,0.03615 29.7716,3.569225 37.10984,-0.298716 7.33824,-3.867941 16.03078,-19.606653 16.03078,-19.606653 0,0 7.73186,18.744253 37.1569,22.171104 34.40193,4.006462 61.89554,-9.915225 86.99367,-11.506718 36.622083,-2.322236 55.693786,13.172466 55.448897,20.870365 -0.125822,3.9551 -1.281844,6.84661 -7.235997,7.60006 -7.04459,0.89143 -6.868306,-5.20545 -6.868306,-5.20545 0,0 1.420923,3.53687 4.148771,3.82527 3.142174,0.33221 6.292635,-0.3114 7.418902,-3.28304 2.262748,-5.970234 -4.878741,-11.328615 -6.579114,-12.109907 -6.552412,-3.01072 -11.357885,-5.598037 -27.834712,-5.379997 -23.213361,0.307186 -51.373111,16.005354 -80.047741,20.014134 -25.64093,3.58466 -45.28668,-1.81027 -51.01428,-3.45126 -16.9428,-4.854198 -25.57771,-11.450893 -25.57771,-11.450893 0,0 -2.5779,2.179213 -16.08371,2.135356 -14.18876,-0.04607 -19.26183,-1.783262 -28.0486,-1.53066 -8.70224,0.250172 -16.12908,1.674505 -16.12908,1.674505 z"
           id="path1387" /><path
           style="display:inline;fill:#3884c2;fill-opacity:1;stroke-width:0.100439;stop-color:#000000"
           d="m -199.5434,70.484974 c 0,0 -2.19253,8.067968 -2.15153,9.934528 0.0313,1.426659 11.21413,16.191086 34.42447,20.398958 20.02889,3.6311 23.82835,4.0237 37.32465,1.87656 13.49631,-2.14714 29.1544,-9.134025 36.295823,-11.432812 6.651046,-2.140937 25.573864,-7.41734 35.573905,-7.240771 11.05072,0.19512 17.605037,0.952869 22.448174,2.835476 4.826355,1.876083 12.629794,7.869213 12.629794,7.869213 0,0 -9.194617,-12.945302 -37.091851,-14.806883 -25.976771,-1.733428 -43.133715,4.833878 -51.465775,6.476812 -10.95283,2.159703 -31.13823,7.053922 -48.36734,5.241601 -30.57833,-3.216519 -39.62032,-21.152682 -39.62032,-21.152682 z"
           id="path9740" /><path
           style="display:inline;fill:#599fd4;fill-opacity:1;stroke-width:0.100439;stop-color:#000000"
           d="m -188.89717,86.141199 c 0,0 11.34426,5.071616 23.92527,6.339177 16.99819,1.712599 32.81238,-1.730995 42.78943,-3.731936 8.37581,-1.679805 29.110684,-7.477796 43.300646,-8.588557 10.127342,-0.792748 23.855912,-1.219732 38.035047,3.578566 10.615148,3.592225 16.512527,9.406517 16.512527,9.406517 0,0 -11.528096,-7.71948 -21.471398,-9.559885 -10.571349,-1.95665 -19.937723,-2.632803 -32.053728,-0.920203 -11.925627,1.68569 -23.516294,5.393411 -35.785664,9.406517 -9.82477,3.213519 -18.31872,6.08425 -31.79811,6.901521 -30.77567,1.865964 -43.45402,-12.831717 -43.45402,-12.831717 z"
           id="path11597" /></g><g
         id="g36876"><path
           style="display:inline;fill:#306998;fill-opacity:1;stroke-width:0.100439;stop-color:#000000"
           d="m -272.17552,61.960317 c 0,0 -2.58673,29.953282 -2.13472,31.515659 0.12405,0.428798 8.39561,-2.358199 17.24887,-2.586065 5.46279,-0.140603 20.99022,-0.212829 28.25002,-0.277321 7.44013,-0.06609 17.08007,0.695369 24.01725,-8.655718 8.53292,-11.502093 5.55728,-18.130312 1.83814,-26.540219 -4.6816,-10.586274 -14.621,-12.576103 -14.621,-12.576103 0,0 11.38207,-5.140074 10.25443,-17.376469 -0.75737,-8.218413 -6.11905,-14.154767 -12.22748,-17.0234611 -5.27624,-2.4778744 -13.91104,-3.1052866 -13.91104,-3.1052866 l -7.04868,2.3268205 c 0,0 20.56253,3.9462582 20.56253,18.4650122 0,14.518755 -17.11615,16.340553 -17.11615,16.340553 0,0 23.39951,2.531127 23.25704,21.20896 -0.12902,16.914448 -15.38953,21.649132 -26.3554,22.383452 -6.73617,0.451081 -16.43865,-1.561335 -22.7581,-7.699059 -5.78209,-4.867506 -7.44889,-11.678748 -9.25571,-16.400755 z"
           id="path1368" /><path
           id="path1379"
           style="display:inline;fill:#599fd4;fill-opacity:1;stroke-width:0.100439;stop-color:#000000"
           d="m -224.19613,9.7601278 c 0,0 4.99082,2.9475942 8.92917,7.5912682 3.53603,4.16932 5.38623,10.663948 5.38623,10.663948 0,0 0.3579,-7.197311 -4.22972,-12.326896 -3.7018,-4.13913 -10.08568,-5.9283202 -10.08568,-5.9283202 z m 1.76268,33.8981892 c 0,0 8.11513,4.099821 12.83177,9.764779 4.07745,4.897232 7.25951,14.978414 7.25951,14.978414 0,0 -0.0382,-10.637352 -5.41931,-17.17673 -5.98626,-7.27489 -14.67197,-7.566463 -14.67197,-7.566463 z m -47.74386,24.157182 c 0,0 -1.25881,21.970887 -1.15703,23.279716 0.0413,0.531027 8.74709,-1.86679 12.42047,-1.864524 4.80391,0.003 12.54543,-0.0012 12.54543,-0.0012 0,0 -7.90089,-3.698315 -11.05858,-6.134539 -3.51859,-2.714666 -7.07566,-5.699718 -9.26565,-8.592708 -2.18999,-2.89299 -3.5102,-6.507806 -3.5102,-6.507806 z" /><path
           style="display:inline;fill:#ffd53d;fill-opacity:1;stroke-width:0.100439;stop-color:#000000"
           d="m -271.91261,19.918087 c 0,0 -4.15713,-7.410541 -1.48211,-15.7971035 2.67504,-8.3865629 9.60737,-14.3433325 14.96568,-14.8572295 2.80113,-0.268647 -1.12062,11.63997042 -1.12062,11.63997042 0,0 5.26314,-8.13904292 9.57948,-10.23016062 3.83508,-1.8579638 7.44669,-2.2773858 9.68793,-1.0483198 2.24123,1.2290649 -3.00037,8.856499 -3.00037,8.856499 0,0 6.89026,-5.2414906 13.30283,-4.1932814 7.51898,1.2290651 4.08483,5.20545276 4.08483,5.20545276 0,0 -3.26332,4.84046084 -6.57911,6.03687924 -3.50645,1.265214 -5.69066,2.5174013 -7.44669,2.1327895 -3.73888,-0.8189014 -12.96044,-0.2455238 -17.7853,1.3013632 -10.7448,3.4448677 -14.13426,10.9169917 -14.20655,10.9531407 z"
           id="path669" /><path
           style="display:inline;fill:#686868;fill-opacity:1;stroke-width:0.100439;stop-color:#000000"
           d="m -265.73112,26.569498 c 0,0 2.77664,-4.966739 6.97674,-5.060857 4.22353,-0.09464 7.2298,4.048686 7.2298,4.048686 0,0 -0.61454,-7.194297 -7.12135,-7.193647 -8.06195,8.05e-4 -7.08519,8.205818 -7.08519,8.205818 z"
           id="path1281" /><path
           style="display:inline;fill:#ffd53d;fill-opacity:1;stroke-width:0.100439;stop-color:#000000"
           d="m -275.44736,50.777297 c 0,0 -1.90319,2.361345 -1.87873,4.422087 0.0511,4.307059 3.39342,4.742442 3.60413,4.511549 0.17504,-0.191811 -0.84353,-2.990659 -0.409,-4.728821 0.43455,-1.738159 2.37719,-4.33262 2.37719,-4.33262 0,0 -0.53678,3.859739 -0.56234,5.022774 0.0382,1.865966 0.80519,7.770599 6.60756,7.336061 5.8024,-0.434541 6.35196,-5.227263 6.42865,-7.75782 0.0767,-2.53056 -1.39325,-8.005988 -2.33025,-10.972772 -0.81767,-2.588974 -0.34758,-3.58094 -0.34758,-3.58094 0,0 -4.68113,4.623059 -6.66531,5.971535 -1.80011,1.223379 -6.82432,4.108967 -6.82432,4.108967 z"
           id="path1365" /><path
           style="display:inline;fill:#686868;fill-opacity:1;stroke-width:0.100439;stop-color:#000000"
           d="m -272.70788,21.70746 c 0.1079,0.230803 -1.49983,6.534055 4.62705,8.422712 7.39179,2.278575 11.194,-1.464219 11.82073,-1.012172 0.5071,0.365761 -1.6755,8.422042 -6.57912,13.266675 -4.08682,4.037653 -7.24175,6.273852 -10.80854,8.061221 -2.4755,1.240508 -5.76244,1.67237 -6.75985,1.156769 -0.48903,-0.252799 4.3835,-3.280025 6.90445,-8.892648 1.51679,-3.376971 -0.29143,-6.102903 -5.81999,-8.928798 -3.51316,-1.795732 -7.69872,-1.162153 -9.52811,-0.912611 -0.48291,0.06587 5.60115,-5.06217 7.68705,-6.421823 2.02377,-1.319152 8.24615,-5.188916 8.45633,-4.739325 z"
           id="path1284" /><path
           id="path1284-1"
           style="display:inline;fill:#599fd4;fill-opacity:1;stroke-width:0.100439;stop-color:#000000"
           d="m -272.788,21.629171 c -0.79876,-0.0088 -6.53084,3.416788 -8.44393,4.663798 -2.0859,1.35965 -8.52032,6.960415 -8.06152,6.795967 2.18646,-0.783701 10.53945,-0.606701 13.04468,-0.295072 1.17613,0.146302 6.60039,1.832876 9.40459,2.037602 4.41979,0.322674 6.90645,-2.427774 7.21558,-2.329574 0.24081,0.07649 -0.73697,1.591411 -1.264,2.555916 -0.59776,1.093946 -1.74588,2.976418 -2.22364,3.900021 -0.75311,1.455901 -4.70631,4.815203 -5.67924,5.554699 -1.13133,0.859889 -5.12037,2.451574 -5.93142,2.816883 -0.81105,0.365308 1.39954,-2.194771 1.95389,-4.645711 0.42465,-1.877754 0.0212,-2.822567 0.0212,-2.822567 0,0 -0.46716,1.835608 -1.07642,2.9099 -3.03521,5.352014 -7.06124,8.537362 -6.57221,8.790161 0.99741,0.515601 4.2843,0.08399 6.7598,-1.156519 3.56678,-1.787368 6.72183,-4.023874 10.80864,-8.061523 4.90362,-4.844628 7.08603,-12.900613 6.57893,-13.266374 -0.62673,-0.452046 -4.4292,3.290398 -11.82099,1.011825 -6.12687,-1.888655 -4.51869,-8.191938 -4.62659,-8.422742 -0.0115,-0.02459 -0.0411,-0.03618 -0.0873,-0.03669 z m -3.11919,4.494299 c 0.84351,0 1.52084,1.086239 1.52084,1.086239 l -2.97812,0.102319 c 0,-0.05112 0.61376,-1.188558 1.45728,-1.188558 z" /><path
           style="display:inline;fill:#ffd53d;fill-opacity:1;stroke-width:0.100439;stop-color:#000000"
           d="m -265.274,37.71553 c 0.14198,0.04268 -0.90137,2.834023 -2.36442,4.511551 -2.07506,2.379262 -4.44108,2.653228 -4.67768,2.453873 -0.12499,-0.105315 -0.0112,-1.977784 0.99689,-3.476321 0.88601,-1.317097 2.38017,-1.722595 2.51776,-1.597574 0.11507,0.104556 -0.0255,0.702934 -0.0255,0.702934 0,0 1.28923,-0.606077 1.89151,-1.099132 0.6993,-0.386792 1.3954,-1.430522 1.66144,-1.495331 z"
           id="path1344" /><path
           style="display:inline;fill:#ffd53d;fill-opacity:1;stroke-width:0.100439;stop-color:#000000"
           d="m -291.40593,51.84667 c 0.0562,0.3899 2.16216,0.538872 4.49151,-1.400773 2.37679,-1.979155 2.91901,-4.166168 4.6361,-5.7025 1.71707,-1.536332 4.56099,-2.35009 6.38932,-2.647914 1.99725,-0.325339 1.1116,-0.478973 2.49429,-1.201951 1.35038,-0.706086 0.87754,-0.195807 2.24124,-1.021211 1.37366,-0.831426 2.26424,-2.383616 2.16801,-2.503959 -0.12606,-0.157659 -0.90279,-0.116842 -2.14993,0.353096 -1.24714,0.469937 -1.44597,0.75009 -2.22319,0.966985 -0.77718,0.216895 -4.03059,0.795278 -6.16339,0.98506 -2.10508,0.187316 -4.47555,1.469165 -7.22978,4.319802 -1.55346,1.607831 -2.42355,2.115624 -4.11352,2.702137 -1.57843,0.547804 -3.58628,-0.612056 -3.55006,-0.352453 0.0965,0.691979 1.72755,2.003055 3.39938,1.985358 1.52776,-0.01617 2.83914,-0.846211 2.83914,-0.846211 0,0 0.14177,1.156313 -0.51795,2.430565 -0.86082,1.662642 -2.72807,1.816791 -2.71117,1.933969 z"
           id="path1360" /><path
           style="display:inline;fill:#ffe875;fill-opacity:1;stroke-width:0.100439;stop-color:#000000"
           d="m -269.18486,37.511042 c -0.20905,-0.169584 -1.66147,0.04473 -2.86284,0.626248 -1.14727,0.555328 -2.00658,1.814846 -3.47634,1.993773 -1.46976,0.17893 -5.22153,0.552998 -6.46697,0.984107 -1.32919,0.460101 -2.62641,1.955429 -3.2335,2.85007 -0.29987,0.441903 -1.24446,2.409564 -1.12469,2.683926 0.174,0.398586 3.37015,-3.303299 4.25593,-3.66803 1.52091,-0.62625 4.51794,-1.329183 5.59792,-1.278059 0.87269,0.04131 2.18549,-0.651812 3.00342,-1.099132 0.81796,-0.447321 1.6615,-0.146974 2.33886,-0.747663 0.67736,-0.600689 2.19531,-2.161013 1.96821,-2.34524 z"
           id="path1362" /></g></g><g
       id="g36864"
       transform="matrix(0.48303597,0,0,0.48303597,290.06366,38.285293)"><path
         style="display:inline;fill:#ffd53d;fill-opacity:1;stroke-width:0.100439;-inkscape-stroke:none;stop-color:#000000"
         d="m -341.16089,-30.671122 0.0467,-16.24148 c 0,0 -9.51338,-6.392201 -26.83358,-6.128535 -12.41842,0.189047 -20.214,4.020015 -26.28863,8.425281 -6.99715,5.074273 -13.22094,16.683846 -13.52411,25.312302 -0.48096,13.6883535 3.18438,25.4323156 18.29139,33.112463 5.67633,2.885748 18.51692,5.981441 29.1716,4.265907 10.65468,-1.715533 19.12343,-8.2422941 19.12343,-8.2422941 l 0.1446,-13.7366114 h -1.80745 c 0,0 -2.07423,9.1160946 -6.00075,12.1460563 -8.01504,6.1849262 -17.823,6.1767772 -25.3341,2.7479462 -4.28762,-1.9573077 -15.02056,-8.9329787 -14.71895,-29.1367 0.16744,-11.216354 4.7739,-20.641365 13.30283,-25.73807 8.10055,-4.84071 19.15204,-4.524016 25.06256,-0.39507 6.57335,4.591983 7.39922,13.592016 7.39922,13.592016 z"
         id="path27073" /><path
         style="display:inline;fill:url(#linearGradient36860);fill-opacity:1;stroke-width:0.100439;-inkscape-stroke:none;stop-color:#000000"
         d="m -341.31863,-46.993669 c 0,0 -19.73736,-6.000732 -30.87124,-2.53043 -11.13388,3.470301 -17.71301,8.748053 -22.19548,17.35151 -4.48246,8.603456 -4.26558,18.36368 -2.38582,25.2319854 1.87976,6.86830565 9.03724,16.9177214 17.4961,20.4603206 8.45886,3.5426 19.23127,4.193282 19.23127,4.193282 0,0 -14.02581,2.385832 -24.79821,-1.952045 -10.7724,-4.337877 -18.18885,-9.8691201 -21.54478,-20.8218108 -3.4703,-11.3259702 -1.11591,-24.2678582 5.5494,-32.8444472 6.14944,-7.912806 13.8167,-14.205506 31.17796,-15.016799 18.433,-0.861375 28.3408,5.928434 28.3408,5.928434 z"
         id="path27238" /></g></g><g
     id="layer3"><g
       id="g37670"
       transform="matrix(0.31661433,0,0,0.31661433,50.135695,12.52675)"
       style="display:inline"><path
         style="fill:url(#linearGradient1478);fill-opacity:1"
         d="M 54.918785,9.1927421e-4 C 50.335132,0.02221727 45.957846,0.41313697 42.106285,1.0946693 30.760069,3.0991731 28.700036,7.2947714 28.700035,15.032169 v 10.21875 h 26.8125 v 3.40625 h -26.8125 -10.0625 c -7.792459,0 -14.6157588,4.683717 -16.7499998,13.59375 -2.46181998,10.212966 -2.57101508,16.586023 0,27.25 1.9059283,7.937852 6.4575432,13.593748 14.2499998,13.59375 h 9.21875 v -12.25 c 0,-8.849902 7.657144,-16.656248 16.75,-16.65625 h 26.78125 c 7.454951,0 13.406253,-6.138164 13.40625,-13.625 v -25.53125 c 0,-7.2663386 -6.12998,-12.7247771 -13.40625,-13.9374997 C 64.281548,0.32794397 59.502438,-0.02037903 54.918785,9.1927421e-4 Z m -14.5,8.21875012579 c 2.769547,0 5.03125,2.2986456 5.03125,5.1249996 -2e-6,2.816336 -2.261703,5.09375 -5.03125,5.09375 -2.779476,-1e-6 -5.03125,-2.277415 -5.03125,-5.09375 -10e-7,-2.826353 2.251774,-5.1249996 5.03125,-5.1249996 z"
         id="path1948" /><path
         style="fill:url(#linearGradient1475);fill-opacity:1"
         d="m 85.637535,28.657169 v 11.90625 c 0,9.230755 -7.825895,16.999999 -16.75,17 h -26.78125 c -7.335833,0 -13.406249,6.278483 -13.40625,13.625 v 25.531247 c 0,7.266344 6.318588,11.540324 13.40625,13.625004 8.487331,2.49561 16.626237,2.94663 26.78125,0 6.750155,-1.95439 13.406253,-5.88761 13.40625,-13.625004 V 86.500919 h -26.78125 v -3.40625 h 26.78125 13.406254 c 7.792461,0 10.696251,-5.435408 13.406241,-13.59375 2.79933,-8.398886 2.68022,-16.475776 0,-27.25 -1.92578,-7.757441 -5.60387,-13.59375 -13.406241,-13.59375 z m -15.0625,64.65625 c 2.779478,3e-6 5.03125,2.277417 5.03125,5.093747 -2e-6,2.826354 -2.251775,5.125004 -5.03125,5.125004 -2.76955,0 -5.03125,-2.29865 -5.03125,-5.125004 2e-6,-2.81633 2.261697,-5.093747 5.03125,-5.093747 z"
         id="path1950" /></g></g></svg>
