<?xml version="1.0" encoding="UTF-8"?>
<!-- Created with Inkscape (http://www.inkscape.org/) -->
<svg width="32" height="32" version="1.1" viewBox="0 0 8.4667 8.4667" xml:space="preserve"
    xmlns="http://www.w3.org/2000/svg" xmlns:xlink="http://www.w3.org/1999/xlink">
    <g>
        <path
            d="m1.6785 5.9614s0.047607 2.1333 0.032359 2.2597c-0.013303 0.11028 0.79524-0.015819 1.4882-0.033655 0.42759-0.011008 1.6513 0.11381 2.2266 0.1087 0.57531-0.0051 1.7795 0.074837 2.3632-0.6545 0.58375-0.72934 0.61312-2.0937 0.12854-2.6681s-1.6354-0.73123-1.6354-0.73123 1.333-0.5064 1.3703-1.4675c0.027508-0.70838-0.62789-1.45-1.3867-1.4782-0.45595-0.016987-1.227 0.010087-1.227 0.010087l-0.55173 0.18213s1.324 0.28588 1.324 1.4223c0 1.1364-1.7052 1.0732-1.6944 1.2804 0.00947 0.18139 1.8636 0.60345 1.853 1.671s-0.55648 1.1524-1.271 1.1662c-0.7145 0.013847-1.311-0.011186-1.8899-0.24463-0.57886-0.23344-0.86952-0.4747-1.1303-0.82261z"
            fill="#306998" stop-color="#000000" stroke-width=".0078618" />
        <path
            d="m5.7715 1.7144c0.362 0 0.37989 0.2673 0.59152 0.69392 0.23813 0.48002 0.41393 0.7043 0.41393 0.7043s0.38856-0.64007 0.02947-1.0416c-0.28975-0.32399-1.0349-0.35664-1.0349-0.35664zm0.1303 2.5843s0.37278 0.54823 0.69754 1.0251c0.34984 0.51374 0.86741 1.6787 0.86741 1.6787s0.2118-1.3696-0.48556-2.1193c-0.46857-0.56943-1.0794-0.58459-1.0794-0.58459zm-4.1897 1.7912s0.085578 1.9882 0.093545 2.0907c0.00323 0.041566 0.89946-0.077081 1.187-0.076902 0.37602 2.349e-4 1.0587 0.053605 1.0587 0.053605s-0.57241-0.59633-0.81957-0.78702c-0.27541-0.21249-0.6459-0.33107-0.81731-0.55752-0.17142-0.22645-0.71202-0.70884-0.71202-0.70884z"
            fill="#599fd4" stop-color="#000000" stroke-width=".0078726" />
        <path
            d="m1.4485 2.8285s-0.45536-0.66841-0.16235-1.4249c0.29301-0.75644 1.0524-1.2937 1.6393-1.3401 0.30683-0.024231-0.12275 1.0499-0.12275 1.0499s0.57651-0.73412 1.0493-0.92273c0.42008-0.16758 0.81568-0.20541 1.0612-0.094555 0.2455 0.11086-0.32865 0.79883-0.32865 0.79883s0.75474-0.47277 1.4571-0.37822c0.8236 0.11086 0.44744 0.46952 0.44744 0.46952s-0.35745 0.4366-0.72065 0.54451c-0.38408 0.11412-0.62333 0.22706-0.81568 0.19237-0.40954-0.073862-1.4196-0.022145-1.9481 0.11738-1.1769 0.31072-1.5482 0.98468-1.5561 0.98794z"
            fill="#ffd53d" stop-color="#000000" stroke-width=".0099834" />
        <path
            d="m2.8791 3.3047s0.38441-0.70395 0.96589-0.71729c0.58472-0.013424 1.0009 0.57383 1.0009 0.57383s-0.08508-1.0197-0.98591-1.0196c-1.1161 1.14e-4 -0.9809 1.163-0.9809 1.163z"
            fill="#686868" stop-color="#000000" stroke-width=".014069" />
        <path
            d="m1.6871 5.3381s-0.37376 0.20205-0.37175 0.37136c0.0042 0.35386 0.063801 0.43316 0.33637 0.37066 0.13309-0.030518 0.011205-0.25376 0.046915-0.39656 0.035701-0.1428 0.29193-0.35596 0.29193-0.35596s-0.044101 0.31711-0.046202 0.41266c0.0031367 0.1533 0.17083 0.75114 0.64754 0.71544 0.47671-0.035701 0.50576-0.54219 0.51206-0.75009 0.0063027-0.2079-0.09031-0.65775-0.16729-0.9015-0.067178-0.2127-0.14128-0.2942-0.14128-0.2942s-0.38459 0.37982-0.54761 0.49061c-0.14789 0.10051-0.56067 0.33758-0.56067 0.33758z"
            fill="#ffd53d" stop-color="#000000" stroke-width=".0082518" />
        <path
            d="m1.6815 2.7669c0.01047 0.021374-0.14537 0.60511 0.44849 0.78001 0.71646 0.21102 1.085-0.1356 1.1457-0.093736 0.049151 0.033873-0.1624 0.77995-0.63769 1.2286-0.39612 0.37392-0.70192 0.58101-1.0476 0.74654-0.23994 0.11488-0.55854 0.15488-0.65521 0.10713-0.0474-0.023411 0.42488-0.30376 0.66923-0.82353 0.14702-0.31274-0.028247-0.56518-0.56411-0.82688-0.34052-0.1663-0.74621-0.10763-0.92353-0.084516-0.046807 0.0061003 0.5429-0.4688 0.74508-0.59471 0.19616-0.12216 0.79928-0.48054 0.81965-0.4389z"
            fill="#599fd4" stop-color="#000000" stroke-width=".0095159" />
        <path
            d="m0.85344 5.4056c0.14453-0.10097 0.21856-0.61474 0.33526-0.78881 0.1167-0.17407 0.20244-0.26558 0.2668-0.46204-0.25726 0.070876-0.45922 0.21088-0.64836 0.25637-0.18915 0.04549-0.76288 0.089417-0.7544 0.11008 0.024943 0.060762 0.18424 0.1874 0.32786 0.20903 0.14362 0.021622 0.43427 0.03319 0.43427 0.033188 0 0-0.10063 0.32913-0.19919 0.43459-0.098557 0.10546-0.54166 0.32952-0.54166 0.32952 0.25087-0.00442 0.63489-0.020953 0.77942-0.12193z"
            fill="#ffd53d" stop-color="#000000" stroke-width=".008463" />
    </g>
</svg>